<svg preserveAspectRatio="none" overflow="visible" style="display: block;" width="12" height="12" viewBox="0 0 12 12" fill="none" xmlns="http://www.w3.org/2000/svg">
<path id="Vector 2 (Stroke)" d="M9.33355 2.38304C9.33364 2.38332 9.33376 2.38419 10.3253 2.04733C11.3171 1.71038 11.3176 1.71052 11.3177 1.71094V1.71163C11.3179 1.71235 11.3187 1.71339 11.3191 1.71438C11.3197 1.71634 11.3201 1.71899 11.3211 1.72197C11.3231 1.72809 11.326 1.73652 11.3293 1.74678C11.3359 1.76755 11.3453 1.79685 11.3565 1.83364C11.3791 1.90729 11.4101 2.01226 11.4464 2.14384C11.5191 2.40671 11.6137 2.77878 11.7039 3.22404C11.8826 4.10545 12.0529 5.31613 11.9845 6.55354C11.9168 7.77857 11.6078 9.15163 10.7122 10.2318C9.78195 11.3536 8.35373 12 6.39171 12C4.49747 12 2.96096 11.5106 1.85192 10.6172C0.733398 9.71606 0.131876 8.46778 0.0196573 7.13465C-0.125495 5.40927 0.538058 3.59736 1.84988 2.11765H0.491687V0H5.96328V5.01149H3.87082V3.05722C2.56826 4.24934 2.00262 5.74221 2.10462 6.95473C2.17102 7.74391 2.51381 8.44418 3.15494 8.96071C3.80554 9.48481 4.84452 9.8823 6.39171 9.88235C7.87148 9.88235 8.65678 9.41694 9.10946 8.87109C9.59648 8.28378 9.8403 7.43332 9.89549 6.43497C9.95 5.44888 9.81374 4.43558 9.65437 3.64936C9.57563 3.26096 9.49341 2.93811 9.43163 2.71461C9.40082 2.60312 9.37471 2.51686 9.35739 2.46025C9.34877 2.43207 9.34243 2.41109 9.33832 2.39821C9.33635 2.39206 9.33502 2.38755 9.33423 2.38511C9.33395 2.38426 9.33365 2.38335 9.33355 2.38304Z" fill="#C9AAC9"/>
</svg>
