<svg preserveAspectRatio="none" overflow="visible" style="display: block;" width="29.884" height="11.2882" viewBox="0 0 29.884 11.2882" fill="none" xmlns="http://www.w3.org/2000/svg">
<g id="Group 40">
<path id="Ellipse 2 (Stroke)" d="M28.9222 0.39095C29.4534 0.541426 29.7654 1.09579 29.5789 1.61547C27.5549 7.25387 22.163 11.2882 15.8258 11.2882C9.98467 11.2882 4.94651 7.86056 2.60883 2.91056C2.37305 2.41129 2.63009 1.82958 3.14433 1.62852L3.54995 1.46992C4.06446 1.26876 4.64097 1.52529 4.88372 2.02154C6.86338 6.06848 11.0206 8.85338 15.8258 8.85343C21.045 8.85343 25.5 5.56778 27.2301 0.950327C27.4239 0.433014 27.9729 0.122078 28.5045 0.272631L28.9222 0.39095Z" fill="#C9AAC9"/>
<g id="Group 39">
<path id="Line 1 (Stroke)" d="M2.61296 6.06468C2.34311 6.54655 1.73371 6.71842 1.25184 6.44856L0.872498 6.23612C0.39063 5.96626 0.218761 5.35687 0.488617 4.875L2.68566 0.951859C2.95552 0.469992 3.56491 0.298122 4.04678 0.567978L4.42612 0.780421C4.90799 1.05028 5.07986 1.65967 4.81 2.14154L2.61296 6.06468Z" fill="#C9AAC9"/>
<path id="Line 2 (Stroke)" d="M8.09365 1.6794C8.62712 1.82234 8.9437 2.37067 8.80076 2.90414L8.68823 3.32411C8.54529 3.85757 7.99695 4.17416 7.46349 4.03122L3.19841 2.88839C2.66494 2.74545 2.34836 2.19711 2.4913 1.66365L2.60383 1.24368C2.74677 0.710212 3.29511 0.39363 3.82858 0.536571L8.09365 1.6794Z" fill="#C9AAC9"/>
</g>
</g>
</svg>
